<svg width="278" height="24" viewBox="0 0 278 24" fill="none" xmlns="http://www.w3.org/2000/svg">
<g clip-path="url(#clip0_90_51)">
<path opacity="0.07" d="M35 0H3C1.3 0 0 1.3 0 3V21C0 22.7 1.4 24 3 24H35C36.7 24 38 22.7 38 21V3C38 1.3 36.6 0 35 0Z" fill="black"/>
<path d="M35 1C36.1 1 37 1.9 37 3V21C37 22.1 36.1 23 35 23H3C1.9 23 1 22.1 1 21V3C1 1.9 1.9 1 3 1H35Z" fill="white"/>
<path d="M25.2601 16.23C23.5631 17.71 21.1031 18.5 18.9851 18.5C16.0151 18.5 13.3411 17.2 11.3191 15.037C11.1591 14.867 11.3011 14.635 11.4921 14.767C13.6751 16.271 16.3741 17.175 19.1621 17.175C21.0421 17.175 23.1121 16.715 25.0121 15.759C25.3001 15.614 25.5421 15.982 25.2601 16.23ZM25.9661 15.273C25.7501 14.945 24.5321 15.118 23.9861 15.195C23.8191 15.219 23.7931 15.047 23.9431 14.925C24.9131 14.115 26.5051 14.349 26.6911 14.62C26.8781 14.892 26.6441 16.78 25.7311 17.683C25.5911 17.821 25.4591 17.747 25.5211 17.563C25.7261 16.959 26.1841 15.603 25.9661 15.273Z" fill="#FF9900"/>
<path d="M21.814 15.291C21.24 14.793 21.138 14.561 20.821 14.086C19.874 15.098 19.203 15.401 17.971 15.401C16.518 15.401 15.384 14.463 15.384 12.583C15.384 11.116 16.146 10.116 17.228 9.62799C18.168 9.19499 19.478 9.11799 20.478 8.99999V8.76499C20.478 8.33499 20.511 7.82499 20.27 7.45499C20.058 7.12199 19.654 6.98499 19.3 6.98499C18.64 6.98499 18.05 7.33799 17.908 8.06999C17.878 8.23299 17.764 8.39299 17.608 8.39999L15.931 8.21299C15.791 8.17999 15.635 8.05999 15.674 7.83299C16.06 5.70799 17.897 5.06699 19.541 5.06699C20.381 5.06699 21.481 5.30099 22.145 5.96699C22.987 6.78699 22.907 7.88499 22.907 9.07699V11.895C22.907 12.742 23.242 13.115 23.557 13.571C23.67 13.735 23.695 13.931 23.554 14.053C23.201 14.361 22.574 14.933 22.228 15.253C22.171 15.3004 22.1008 15.3295 22.0269 15.3363C21.953 15.343 21.8788 15.3273 21.814 15.291ZM20.155 12.758C20.495 12.132 20.478 11.544 20.478 10.84V10.448C19.228 10.448 17.908 10.728 17.908 12.268C17.908 13.05 18.294 13.578 18.958 13.578C19.445 13.578 19.88 13.266 20.155 12.758Z" fill="#221F1F"/>
</g>
<g clip-path="url(#clip1_90_51)">
<path opacity="0.07" d="M83 0H51C49.3 0 48 1.3 48 3V21C48 22.7 49.4 24 51 24H83C84.7 24 86 22.7 86 21V3C86 1.3 84.6 0 83 0Z" fill="black"/>
<path d="M83 1C84.1 1 85 1.9 85 3V21C85 22.1 84.1 23 83 23H51C49.9 23 49 22.1 49 21V3C49 1.9 49.9 1 51 1H83Z" fill="#006FCF"/>
<path d="M56.971 10.268L57.745 12.144H56.203L56.971 10.268ZM73.046 10.346H70.069V11.173H72.998V12.412H70.075V13.334H73.052V14.073L75.129 11.828L73.052 9.488L73.046 10.346ZM58.983 8.006H62.978L63.865 9.941L64.687 8H75.057L76.135 9.19L77.25 8H82.013L78.494 11.852L81.977 15.68H77.143L76.065 14.49L74.94 15.68H58.03L57.536 14.49H56.406L55.911 15.68H52L55.286 8H58.716L58.983 8.006ZM67.646 9.084H65.407L63.907 12.62L62.282 9.084H60.06V13.894L58 9.084H56.007L53.625 14.596H55.18L55.674 13.406H58.27L58.764 14.596H61.484V10.661L63.235 14.602H64.425L66.165 10.673V14.603H67.623L67.647 9.083L67.646 9.084ZM76.986 11.852L79.517 9.084H77.695L76.094 10.81L74.546 9.084H68.652V14.602H74.462L76.076 12.864L77.624 14.602H79.499L76.986 11.852Z" fill="white"/>
</g>
<g clip-path="url(#clip2_90_51)">
<path opacity="0.07" d="M131 0H99C97.3 0 96 1.3 96 3V21C96 22.7 97.4 24 99 24H131C132.7 24 134 22.7 134 21V3C134 1.3 132.6 0 131 0Z" fill="black"/>
<path d="M131 1C132.1 1 133 1.9 133 3V21C133 22.1 132.1 23 131 23H99C97.9 23 97 22.1 97 21V3C97 1.9 97.9 1 99 1H131Z" fill="white"/>
<path d="M124.3 10.1H124C123.6 11.1 123.3 11.6 123 13.1H124.9C124.6 11.6 124.6 10.9 124.3 10.1ZM127.2 16H125.5C125.4 16 125.4 16 125.3 15.9L125.1 15L125 14.8H122.6C122.5 14.8 122.4 14.8 122.4 15L122.1 15.9C122.1 16 122 16 122 16H119.9L120.1 15.5L123 8.7C123 8.2 123.3 8 123.8 8H125.3C125.4 8 125.5 8 125.5 8.2L126.9 14.7C127 15.1 127.1 15.4 127.1 15.8C127.2 15.9 127.2 15.9 127.2 16ZM113.8 15.7L114.2 13.9C114.3 13.9 114.4 14 114.4 14C115.1 14.3 115.8 14.5 116.5 14.4C116.7 14.4 117 14.3 117.2 14.2C117.7 14 117.7 13.5 117.3 13.1C117.1 12.9 116.8 12.8 116.5 12.6C116.1 12.4 115.7 12.2 115.4 11.9C114.2 10.9 114.6 9.5 115.3 8.8C115.9 8.4 116.2 8 117 8C118.2 8 119.5 8 120.1 8.2H120.2C120.1 8.8 120 9.3 119.8 9.9C119.3 9.7 118.8 9.5 118.3 9.5C118 9.5 117.7 9.5 117.4 9.6C117.2 9.6 117.1 9.7 117 9.8C116.8 10 116.8 10.3 117 10.5L117.5 10.9C117.9 11.1 118.3 11.3 118.6 11.5C119.1 11.8 119.6 12.3 119.7 12.9C119.9 13.8 119.6 14.6 118.8 15.2C118.3 15.6 118.1 15.8 117.4 15.8C116 15.8 114.9 15.9 114 15.6C113.9 15.8 113.9 15.8 113.8 15.7ZM110.3 16C110.4 15.3 110.4 15.3 110.5 15C111 12.8 111.5 10.5 111.9 8.3C112 8.1 112 8 112.2 8H114C113.8 9.2 113.6 10.1 113.3 11.2C113 12.7 112.7 14.2 112.3 15.7C112.3 15.9 112.2 15.9 112 15.9M101 8.2C101 8.1 101.2 8 101.3 8H104.7C105.2 8 105.6 8.3 105.7 8.8L106.6 13.2C106.6 13.3 106.6 13.3 106.7 13.4C106.7 13.3 106.8 13.3 106.8 13.3L108.9 8.2C108.8 8.1 108.9 8 109 8H111.1C111.1 8.1 111.1 8.1 111 8.2L107.9 15.5C107.8 15.7 107.8 15.8 107.7 15.9C107.6 16 107.4 15.9 107.2 15.9H105.7C105.6 15.9 105.5 15.9 105.5 15.7L103.9 9.5C103.7 9.3 103.4 9 103 8.9C102.4 8.6 101.3 8.4 101.1 8.4L101 8.2Z" fill="#142688"/>
</g>
<g clip-path="url(#clip3_90_51)">
<path opacity="0.07" d="M179 0H147C145.3 0 144 1.3 144 3V21C144 22.7 145.4 24 147 24H179C180.7 24 182 22.7 182 21V3C182 1.3 180.6 0 179 0Z" fill="black"/>
<path d="M179 1C180.1 1 181 1.9 181 3V21C181 22.1 180.1 23 179 23H147C145.9 23 145 22.1 145 21V3C145 1.9 145.9 1 147 1H179Z" fill="white"/>
<path d="M159 19C162.866 19 166 15.866 166 12C166 8.13401 162.866 5 159 5C155.134 5 152 8.13401 152 12C152 15.866 155.134 19 159 19Z" fill="#EB001B"/>
<path d="M167 19C170.866 19 174 15.866 174 12C174 8.13401 170.866 5 167 5C163.134 5 160 8.13401 160 12C160 15.866 163.134 19 167 19Z" fill="#F79E1B"/>
<path d="M166 12C166 9.59999 164.8 7.49999 163 6.29999C161.2 7.59999 160 9.69999 160 12C160 14.3 161.2 16.5 163 17.7C164.8 16.5 166 14.4 166 12Z" fill="#FF5F00"/>
</g>
<g clip-path="url(#clip4_90_51)">
<path opacity="0.07" d="M227 0H195C193.3 0 192 1.3 192 3V21C192 22.7 193.4 24 195 24H227C228.7 24 230 22.7 230 21V3C230 1.3 228.6 0 227 0Z" fill="black"/>
<path d="M227 1C228.1 1 229 1.9 229 3V21C229 22.1 228.1 23 227 23H195C193.9 23 193 22.1 193 21V3C193 1.9 193.9 1 195 1H227Z" fill="white"/>
<path d="M215.9 8.3C216.1 7.3 215.9 6.6 215.3 6C214.7 5.3 213.6 5 212.2 5H208.1C207.8 5 207.6 5.2 207.5 5.5L206 15.6C206 15.8 206.1 16 206.3 16H209L209.4 12.6L211.2 10.4L215.9 8.3Z" fill="#003087"/>
<path d="M215.9 8.29999L215.7 8.49999C215.2 11.3 213.5 12.3 211.1 12.3H210C209.7 12.3 209.5 12.5 209.4 12.8L208.8 16.7L208.6 17.7C208.6 17.9 208.7 18.1 208.9 18.1H211C211.3 18.1 211.5 17.9 211.5 17.7V17.6L211.9 15.2V15.1C211.9 14.9 212.2 14.7 212.4 14.7H212.7C214.8 14.7 216.4 13.9 216.8 11.5C217 10.5 216.9 9.69999 216.4 9.09999C216.3 8.59999 216.1 8.39999 215.9 8.29999Z" fill="#3086C8"/>
<path d="M215.3 8.09999C215.2 7.99999 215.1 7.99999 215 7.99999C214.9 7.99999 214.8 7.99999 214.7 7.89999C214.4 7.79999 214 7.79999 213.6 7.79999H210.6C210.5 7.79999 210.4 7.79999 210.4 7.89999C210.2 7.99999 210.1 8.09999 210.1 8.29999L209.4 12.7V12.8C209.4 12.5 209.7 12.3 210 12.3H211.3C213.8 12.3 215.4 11.3 215.9 8.49999V8.29999C215.8 8.19999 215.6 8.09999 215.4 8.09999H215.3Z" fill="#012169"/>
</g>
<g clip-path="url(#clip5_90_51)">
<path d="M242.839 1.27484H274.943C276.471 1.27484 277.563 2.64401 277.563 4.01318V19.9868C277.563 21.5842 276.253 22.7252 274.943 22.7252H242.839C241.31 22.7252 240.218 21.356 240.218 19.9868V4.01318C240.218 2.41582 241.529 1.27484 242.839 1.27484Z" stroke="#E6E6E6" stroke-width="0.312041" stroke-miterlimit="22.9256"/>
<path fill-rule="evenodd" clip-rule="evenodd" d="M242.839 1.27484H274.943C276.471 1.27484 277.563 2.64401 277.563 4.01318V19.9868C277.563 21.5842 276.253 22.7252 274.943 22.7252H242.839C241.31 22.7252 240.218 21.356 240.218 19.9868V4.01318C240.218 2.41582 241.529 1.27484 242.839 1.27484Z" fill="white"/>
<path fill-rule="evenodd" clip-rule="evenodd" d="M252.23 15.1947L250.483 17.0203C249.828 17.7049 248.736 17.7049 248.08 17.0203L246.333 15.1947C246.552 15.1947 246.989 15.1947 247.207 14.9665C247.425 14.9665 247.644 14.7383 247.644 14.5101L248.954 13.141H249.172H249.391L250.701 14.5101C250.92 14.7383 250.92 14.7383 251.138 14.9665C251.356 14.9665 251.575 14.9665 251.793 15.1947H252.23ZM246.552 9.94624L248.299 8.12068C248.954 7.43609 250.046 7.43609 250.701 8.12068L252.448 9.94624C252.23 9.94624 252.011 9.94624 251.793 10.1744C251.575 10.1744 251.356 10.4026 251.356 10.6308L250.046 12H249.828H249.609L248.299 10.6308C248.08 10.4026 248.08 10.4026 247.862 10.1744C247.644 10.1744 247.425 9.94624 246.989 9.94624H246.552ZM245.241 11.3154L246.115 10.4026C246.77 10.4026 247.207 10.4026 247.425 10.4026C247.644 10.4026 247.862 10.6308 248.08 10.859C249.172 12 249.391 12.2282 249.391 12.2282C249.391 12.2282 249.391 12.2282 249.609 12.2282H249.828H250.046C250.046 12.2282 250.046 12.2282 250.264 12.2282C250.264 12.2282 250.483 12 251.575 10.859C251.793 10.6308 251.793 10.6308 252.23 10.4026C252.448 10.4026 252.885 10.1744 253.322 10.4026L254.195 11.3154C254.851 12 254.851 13.141 254.195 13.8256L253.322 14.7383C252.885 14.7383 252.448 14.7383 252.23 14.7383C252.011 14.7383 251.793 14.5101 251.575 14.2819C250.483 13.141 250.264 12.9128 250.264 12.9128C250.264 12.9128 250.264 12.9128 250.046 12.9128H249.828H249.609H249.391C249.391 12.9128 249.172 13.141 248.08 14.2819C247.862 14.5101 247.644 14.5101 247.425 14.7383C247.207 14.7383 246.77 14.9665 246.115 14.7383L245.241 13.8256C244.586 13.141 244.586 12 245.241 11.3154Z" fill="#31BDAE"/>
<path fill-rule="evenodd" clip-rule="evenodd" d="M256.598 16.7921C256.816 16.5639 256.598 11.5436 256.598 10.6308C256.598 9.71803 257.034 9.03344 257.69 8.80525C258.126 8.57705 260.092 8.57705 260.529 8.80525C261.184 9.03344 261.839 9.71803 261.839 10.6308C261.839 11.7718 262.057 12.4564 261.402 13.141C260.747 13.8255 260.092 13.8255 259 13.8255C258.782 13.8255 257.69 13.8255 257.471 13.8255V14.0537H257.69C258.782 14.0537 260.31 14.2819 261.184 13.8255C261.839 13.3691 262.276 12.9128 262.276 11.7718C262.276 10.6308 262.494 9.94622 261.839 9.26164C261.402 8.57705 260.529 8.34886 259.655 8.34886C258.563 8.34886 257.908 8.12066 257.034 8.80525C256.379 9.26164 256.161 9.94622 256.161 11.0872V16.5639C256.161 16.7921 256.161 17.0203 256.379 16.7921H256.598Z" fill="#96989A"/>
<path fill-rule="evenodd" clip-rule="evenodd" d="M270.356 10.4026C270.575 10.1744 270.793 9.94623 271.23 9.48984C271.448 9.26164 271.667 8.80525 272.103 8.80525C272.54 8.57706 273.195 8.80525 273.414 8.57706C273.414 8.12067 273.195 8.34886 272.759 8.34886C272.54 8.34886 272.322 8.34886 272.103 8.34886C271.448 8.57706 270.793 9.48984 270.356 9.94623C269.92 10.4026 269.701 10.6308 269.483 10.6308C269.264 10.6308 267.954 9.03345 267.736 8.80525C267.517 8.57706 267.299 8.34886 266.644 8.12067C266.425 8.12067 266.207 8.12067 265.77 8.12067C265.552 8.12067 265.333 8.12067 265.552 8.57706C265.989 8.57706 266.425 8.57706 267.081 8.80525C267.299 9.03345 268.391 10.1744 268.609 10.4026C268.828 10.6308 269.046 11.0872 269.483 11.0872C269.92 11.0872 270.138 10.6308 270.356 10.4026Z" fill="#96989A"/>
<path fill-rule="evenodd" clip-rule="evenodd" d="M265.333 14.0538C265.552 14.2819 266.425 14.0538 266.862 14.0538C267.299 13.8256 268.172 12.9128 268.609 12.4564C269.046 12 269.264 11.7718 269.483 11.7718C269.701 11.7718 271.012 13.141 271.23 13.3692C271.448 13.5974 271.667 13.8256 272.103 14.0538C272.322 14.0538 273.632 14.2819 273.195 13.8256C273.195 13.5974 272.322 13.8256 271.885 13.5974C271.667 13.3692 270.356 12.2282 270.138 12C269.92 11.7718 269.701 11.3154 269.046 11.5436C268.391 11.7718 267.299 13.5974 266.425 13.8256C265.77 14.0538 265.115 13.5974 265.115 14.2819L265.333 14.0538Z" fill="#96989A"/>
<path fill-rule="evenodd" clip-rule="evenodd" d="M262.494 8.80527C263.368 9.03346 264.023 8.57707 264.023 9.71805V13.8256C264.023 14.0537 264.023 14.2819 264.241 14.2819C264.46 14.2819 264.46 14.0537 264.46 13.8256V11.0872C264.46 9.94624 264.678 8.34888 263.368 8.34888C262.931 8.34888 262.494 8.34888 262.713 8.80527H262.494Z" fill="#96989A"/>
<path d="M263.307 6.73915L262.828 7.23997C262.787 7.28252 262.781 7.34462 262.813 7.37866L263.324 7.9129C263.357 7.94695 263.416 7.94005 263.457 7.8975L263.936 7.39668C263.977 7.35413 263.984 7.29204 263.951 7.25799L263.44 6.72375C263.407 6.6897 263.348 6.6966 263.307 6.73915Z" fill="#31BDAE"/>
</g>
<defs>
<clipPath id="clip0_90_51">
<rect width="38" height="24" fill="white"/>
</clipPath>
<clipPath id="clip1_90_51">
<rect width="38" height="24" fill="white" transform="translate(48)"/>
</clipPath>
<clipPath id="clip2_90_51">
<rect width="38" height="24" fill="white" transform="translate(96)"/>
</clipPath>
<clipPath id="clip3_90_51">
<rect width="38" height="24" fill="white" transform="translate(144)"/>
</clipPath>
<clipPath id="clip4_90_51">
<rect width="38" height="24" fill="white" transform="translate(192)"/>
</clipPath>
<clipPath id="clip5_90_51">
<rect width="38" height="22" fill="white" transform="translate(240 1)"/>
</clipPath>
</defs>
</svg>
