<svg xmlns="http://www.w3.org/2000/svg" width="220" height="52" viewBox="0 0 220 52" fill="none"><path d="M68.7175 30.5265L75.6973 11.7C76.4283 9.73023 78.2951 8.42188 80.3804 8.42188L68.7175 39.1356L57.0547 8.42188C59.14 8.42188 61.0068 9.72661 61.7377 11.7L68.7175 30.5265Z" fill="#3C3C3B"></path><path d="M81.6586 37.4074H78.6094V22.4156C78.6094 20.7169 79.9745 19.3398 81.6586 19.3398V37.4074Z" fill="#3C3C3B"></path><path d="M86.6402 37.41V22.1868H84.7734V19.3424H86.6402V12.8477H89.6894V19.3424H92.8891V22.1868H89.6894V34.3342C89.6894 36.0329 88.3242 37.41 86.6402 37.41Z" fill="#3C3C3B"></path><path d="M121.052 23.5311C120.633 22.5697 119.719 21.6879 118.612 21.6879C117.505 21.6879 116.401 22.5336 116.401 23.6865C116.401 25.3382 118.458 25.9563 120.554 26.8381C122.65 27.7236 124.707 28.9922 124.707 32.0282C124.707 35.4508 121.962 37.9085 118.648 37.9085C115.638 37.9085 113.273 36.1773 112.32 33.3329L112.424 33.2895C113.743 32.7257 115.226 33.1016 116.24 34.1208C116.835 34.7208 117.605 35.0713 118.723 35.0641C120.278 35.0533 121.611 33.7991 121.579 32.2306C121.493 28.273 113.499 29.6102 113.499 23.954C113.499 20.918 115.939 18.8398 118.834 18.8398C120.891 18.8398 122.797 20.3 123.6 22.183L121.045 23.5275L121.052 23.5311Z" fill="#3C3C3B"></path><path d="M141.564 24.7202H141.489C140.081 22.9131 138.325 21.6842 135.924 21.6842C132.227 21.6842 129.597 24.7599 129.597 28.3742C129.597 31.9884 132.037 35.0641 135.77 35.0641C138.325 35.0641 140.117 33.9112 141.6 31.9486H141.675V36.0616C139.923 37.2543 138.132 37.9085 135.996 37.9085C130.586 37.9085 126.469 33.8353 126.469 28.3742C126.469 22.9131 130.776 18.8398 136.036 18.8398C137.978 18.8398 139.959 19.494 141.561 20.647V24.7202H141.564Z" fill="#3C3C3B"></path><path d="M147.721 37.4074H144.672V22.4156C144.672 20.7169 146.037 19.3398 147.721 19.3398V37.4074Z" fill="#3C3C3B"></path><path d="M154.69 29.0284C153.916 29.0284 153.332 29.7548 153.511 30.5138C154.124 33.1341 156.266 35.0641 159.204 35.0641C161.795 35.0641 163.472 33.4883 164.654 31.3342L167.245 32.8341C165.529 36.0616 162.633 37.9085 158.975 37.9085C153.64 37.9085 150.211 33.7955 150.211 28.6055C150.211 23.4155 153.3 18.8398 158.9 18.8398C164.5 18.8398 167.703 23.6432 167.399 29.0284H154.693H154.69ZM164.192 26.4153C163.773 23.8022 161.601 21.6879 158.932 21.6879C156.263 21.6879 153.862 23.8022 153.482 26.4153H164.192Z" fill="#3C3C3B"></path><path d="M200.439 24.7202H200.364C198.956 22.9131 197.2 21.6842 194.799 21.6842C191.102 21.6842 188.472 24.7599 188.472 28.3742C188.472 31.9884 190.912 35.0641 194.645 35.0641C197.2 35.0641 198.992 33.9112 200.475 31.9486H200.55V36.0616C198.798 37.2543 197.007 37.9085 194.871 37.9085C189.461 37.9085 185.344 33.8353 185.344 28.3742C185.344 22.9131 189.651 18.8398 194.91 18.8398C196.853 18.8398 198.834 19.494 200.436 20.647V24.7202H200.439Z" fill="#3C3C3B"></path><path d="M206.629 29.0284C205.865 29.0284 205.288 29.744 205.46 30.4957C206.066 33.1269 208.212 35.0641 211.158 35.0641C213.748 35.0641 215.425 33.4883 216.607 31.3342L219.198 32.8341C217.482 36.0616 214.587 37.9085 210.928 37.9085C205.593 37.9085 202.164 33.7955 202.164 28.6055C202.164 23.4155 205.253 18.8398 210.853 18.8398C216.453 18.8398 219.657 23.6432 219.352 29.0284H206.629ZM216.149 26.4153C215.73 23.8022 213.558 21.6879 210.889 21.6879C208.219 21.6879 205.819 23.8022 205.439 26.4153H216.149Z" fill="#3C3C3B"></path><path d="M110.462 19.3386C108.91 19.3386 107.631 20.506 107.438 22.0204C107.309 21.8541 107.165 21.6842 107.008 21.518C105.535 19.8374 103.464 18.8398 101.2 18.8398C95.825 18.8398 92.5859 23.26 92.5859 28.4103C92.5859 33.5606 95.9003 37.9049 101.16 37.9049C103.676 37.9049 105.772 36.9038 107.334 34.9051H107.409V37.4025H110.458V19.335L110.462 19.3386ZM101.583 35.0605C97.7706 35.0605 95.7139 31.7173 95.7139 28.179C95.7139 24.6407 97.9999 21.6842 101.544 21.6842C105.317 21.6842 107.563 24.6045 107.563 28.2188C107.563 31.833 105.506 35.0605 101.579 35.0605H101.583Z" fill="#3C3C3B"></path><path d="M177.554 18.8424C177.554 18.8424 177.325 18.8279 176.941 18.8677C176.848 18.8749 176.755 18.8858 176.666 18.8966L176.655 18.9038C176.074 18.9942 175.268 19.2002 174.412 19.6701C172.742 20.5881 172.344 22.0229 172.344 22.0229C171.879 19.2725 169.32 19.3412 169.32 19.3412L169.327 19.3665H169.32V37.4087H172.369V28.8357C172.369 25.6082 172.223 21.6868 176.827 21.6868C180.37 21.6868 180.6 24.2999 180.6 27.2238V37.4123H183.649V26.6889C183.649 22.4602 182.506 18.846 177.551 18.846L177.554 18.8424Z" fill="#3C3C3B"></path><path d="M33.0095 4.41016C25.3382 10.9881 24.4066 22.5897 30.9241 30.3314C38.5955 23.7535 39.5271 12.1482 33.0095 4.41016Z" fill="#3C3C3B"></path><path d="M31.8125 31.4925C36.3307 36.856 44.3066 37.5102 49.6239 32.9491C45.1056 27.5855 37.1298 26.9314 31.8125 31.4925Z" fill="#3C3C3B"></path><path d="M46.7564 19.0406C41.8082 18.3033 37.2075 21.7549 36.4766 26.7425C41.4248 27.4762 46.0254 24.0283 46.7564 19.0406Z" fill="#3C3C3B"></path><path d="M23.9334 18.2125C14.4491 14.797 4.0188 19.7847 0.632812 29.3479C10.1136 32.7597 20.5439 27.7793 23.9334 18.2125Z" fill="#3C3C3B"></path><path d="M24.4865 16.8476C26.8334 10.2191 23.408 2.92562 16.8331 0.554688C14.4862 7.1868 17.9116 14.4803 24.4865 16.8476Z" fill="#3C3C3B"></path><path d="M16.6279 14.8763C14.582 10.2682 9.2253 8.2153 4.66406 10.279C6.70999 14.8836 12.0667 16.94 16.6279 14.8763Z" fill="#3C3C3B"></path><path d="M14.8898 9.71328C15.5204 5.82798 12.9119 2.16316 9.06374 1.52344C8.42954 5.40873 11.038 9.07356 14.8898 9.71328Z" fill="#3C3C3B"></path><path d="M17.0391 30.3783C18.8413 40.3716 28.3329 47.0001 38.2364 45.1821C36.4342 35.1888 26.9462 28.5603 17.0391 30.3783Z" fill="#3C3C3B"></path><path d="M5.41651 45.4118C12.2852 44.1504 16.8393 37.5147 15.5888 30.5898C8.72367 31.8512 4.1696 38.4869 5.41651 45.4118Z" fill="#3C3C3B"></path><path d="M17.8149 38.4219C14.8804 42.5132 15.7905 48.22 19.8429 51.1765C22.7774 47.0888 21.8673 41.3783 17.8149 38.4219Z" fill="#3C3C3B"></path><path d="M10.1114 51.7072C13.7626 50.3229 15.6114 46.2099 14.2355 42.5234C10.5844 43.9113 8.73553 48.0243 10.1114 51.7072Z" fill="#3C3C3B"></path></svg>